<?xml version="1.0" encoding="UTF-8" standalone="no"?>
<!-- Created with Inkscape (http://www.inkscape.org/) -->

<svg
   xmlns:dc="http://purl.org/dc/elements/1.1/"
   xmlns:cc="http://creativecommons.org/ns#"
   xmlns:rdf="http://www.w3.org/1999/02/22-rdf-syntax-ns#"
   xmlns:svg="http://www.w3.org/2000/svg"
   xmlns="http://www.w3.org/2000/svg"
   xmlns:sodipodi="http://sodipodi.sourceforge.net/DTD/sodipodi-0.dtd"
   xmlns:inkscape="http://www.inkscape.org/namespaces/inkscape"
   width="203.72917mm"
   height="169.586mm"
   viewBox="0 0 203.72917 169.586"
   version="1.1"
   id="svg8"
   inkscape:version="0.92.1 r15371"
   sodipodi:docname="activities.svg">
  <defs
     id="defs2" />
  <sodipodi:namedview
     id="base"
     pagecolor="#ffffff"
     bordercolor="#666666"
     borderopacity="1.0"
     inkscape:pageopacity="0.0"
     inkscape:pageshadow="2"
     inkscape:zoom="0.9567761"
     inkscape:cx="414.89111"
     inkscape:cy="274.68487"
     inkscape:document-units="mm"
     inkscape:current-layer="layer1"
     showgrid="true"
     showguides="true"
     inkscape:guide-bbox="true"
     inkscape:window-width="1366"
     inkscape:window-height="706"
     inkscape:window-x="-8"
     inkscape:window-y="-8"
     inkscape:window-maximized="1">
    <inkscape:grid
       type="xygrid"
       id="grid4485"
       originx="-2.6458333"
       originy="-126.88645" />
    <sodipodi:guide
       position="29.104166,-10.469784"
       orientation="0,1"
       id="guide5047"
       inkscape:locked="false" />
  </sodipodi:namedview>
  <metadata
     id="metadata5">
    <rdf:RDF>
      <cc:Work
         rdf:about="">
        <dc:format>image/svg+xml</dc:format>
        <dc:type
           rdf:resource="http://purl.org/dc/dcmitype/StillImage" />
        <dc:title />
      </cc:Work>
    </rdf:RDF>
  </metadata>
  <g
     inkscape:label="Layer 1"
     inkscape:groupmode="layer"
     id="layer1"
     transform="translate(-2.6458333,-0.52754662)">
    <g
       id="g4555"
       style="fill:#a39a75;fill-opacity:1">
      <g
         id="g4540"
         style="fill:#a39a75;fill-opacity:1">
        <path
           inkscape:connector-curvature="0"
           id="path5636"
           d="m 16.50496,153.60954 c -5.322267,-0.12405 -13.8591267,7.93737 -13.8591267,7.93737 v 8.45305 c 0,0 8.4731917,-8.0597 13.8591267,-7.93736 4.995565,0.11346 7.690645,6.55517 12.473215,7.93736 0.884298,0.25557 2.771825,0 2.771825,0 0,0 8.47319,-8.0597 13.859127,-7.93736 4.995564,0.11346 7.690643,6.55517 12.473214,7.93736 0.884298,0.25557 2.771826,0 2.771826,0 0,0 8.47319,-8.0597 13.859127,-7.93736 4.995564,0.11346 7.690643,6.55517 12.473214,7.93736 0.884298,0.25557 2.771825,0 2.771825,0 0,0 8.473188,-8.0597 13.859127,-7.93736 4.99556,0.11346 7.69065,6.55517 12.47321,7.93736 0.8843,0.25557 2.77183,0 2.77183,0 0,0 8.47319,-8.0597 13.85913,-7.93736 4.99557,0.11346 7.69064,6.55517 12.47321,7.93736 0.88431,0.25557 2.77183,0 2.77183,0 0,0 8.47319,-8.0597 13.85912,-7.93736 4.99556,0.11346 7.69065,6.55517 12.47322,7.93736 0.88429,0.25557 2.77182,0 2.77182,0 0,0 8.4732,-8.0597 13.85913,-7.93736 4.99557,0.11346 7.69065,6.55517 12.47321,7.93736 0.88431,0.25557 2.77183,0 2.77183,0 v -8.45305 c 0,0 -1.88752,0.25557 -2.77183,0 -4.78256,-1.3822 -7.47764,-7.8239 -12.47321,-7.93737 -5.38593,-0.12234 -13.85913,7.93737 -13.85913,7.93737 0,0 -1.88753,0.25557 -2.77182,0 -4.78257,-1.3822 -7.47766,-7.8239 -12.47322,-7.93737 -5.38593,-0.12234 -13.85912,7.93737 -13.85912,7.93737 0,0 -1.88752,0.25557 -2.77183,0 -4.78257,-1.3822 -7.47764,-7.8239 -12.47321,-7.93737 -5.38594,-0.12234 -13.85913,7.93737 -13.85913,7.93737 0,0 -1.88753,0.25557 -2.77183,0 -4.78256,-1.3822 -7.47765,-7.8239 -12.47321,-7.93737 -5.385939,-0.12234 -13.859127,7.93737 -13.859127,7.93737 0,0 -1.887527,0.25557 -2.771825,0 -4.782571,-1.3822 -7.47765,-7.8239 -12.473214,-7.93737 -5.385937,-0.12234 -13.859127,7.93737 -13.859127,7.93737 0,0 -1.887528,0.25557 -2.771826,0 -4.782571,-1.3822 -7.47765,-7.8239 -12.473214,-7.93737 -5.385937,-0.12234 -8.714425,6.56844 -13.859127,7.93737 -0.892874,0.23758 -1.887527,0.25557 -2.771825,0 -4.78257,-1.3822 -7.546369,-7.82255 -12.473215,-7.93737 z"
           style="fill:#a39a75;fill-opacity:1;stroke:none;stroke-width:0.27080736px;stroke-linecap:butt;stroke-linejoin:miter;stroke-opacity:1"
           sodipodi:nodetypes="acccccccccccccccscccccccccsccsccscssccsccsssa" />
      </g>
      <path
         sodipodi:nodetypes="ccccc"
         inkscape:connector-curvature="0"
         id="path4544"
         d="m 62.978463,151.47916 c 28.321527,-1e-5 52.368347,0 77.250707,0 0,0 28.96902,-17.38141 28.96902,-30.90029 -21.24395,1.93128 -119.738601,5.7938 -119.738601,5.7938 1.931268,9.65634 3.862536,13.51889 13.518874,25.10649 z"
         style="fill:#a39a75;fill-opacity:1;stroke:none;stroke-width:0.19312675px;stroke-linecap:butt;stroke-linejoin:miter;stroke-opacity:1" />
      <path
         sodipodi:nodetypes="cccc"
         inkscape:connector-curvature="0"
         id="path4546"
         d="m 89.13633,123.05077 c 45.21806,-17.98389 66.86177,-55.647202 80.197,-100.246271 L 54.050133,32.829126 C 79.05975,60.804324 91.80995,85.02531 89.13633,123.05077 Z"
         style="fill:#a39a75;fill-opacity:1;stroke:none;stroke-width:0.25061566px;stroke-linecap:butt;stroke-linejoin:miter;stroke-opacity:1" />
      <path
         sodipodi:nodetypes="cccccc"
         inkscape:connector-curvature="0"
         id="path4548"
         d="M 116.98252,0.52754662 C 108.56925,5.9651315 97.052005,8.7013569 80.782475,6.0967841 l 8.353855,8.3538559 -8.353856,8.353856 c 14.164506,1.850338 29.250146,1.802001 36.200046,-5.569238 0,-3.712823 0,-12.9948867 0,-16.70771138 z"
         style="fill:#a39a75;fill-opacity:1;stroke:none;stroke-width:0.27846184px;stroke-linecap:butt;stroke-linejoin:miter;stroke-opacity:1" />
    </g>
  </g>
</svg>
