<?xml version="1.0" encoding="UTF-8" standalone="no"?>
<svg
   xmlns:dc="http://purl.org/dc/elements/1.1/"
   xmlns:cc="http://creativecommons.org/ns#"
   xmlns:rdf="http://www.w3.org/1999/02/22-rdf-syntax-ns#"
   xmlns:svg="http://www.w3.org/2000/svg"
   xmlns="http://www.w3.org/2000/svg"
   xmlns:xlink="http://www.w3.org/1999/xlink"
   xmlns:sodipodi="http://sodipodi.sourceforge.net/DTD/sodipodi-0.dtd"
   xmlns:inkscape="http://www.inkscape.org/namespaces/inkscape"
   width="50"
   height="50"
   viewBox="0 0 50 50"
   version="1.1"
   id="svg18"
   sodipodi:docname="birdhouseblack.svg"
   inkscape:version="0.92.1 r15371">
  <metadata
     id="metadata22">
    <rdf:RDF>
      <cc:Work
         rdf:about="">
        <dc:format>image/svg+xml</dc:format>
        <dc:type
           rdf:resource="http://purl.org/dc/dcmitype/StillImage" />
        <dc:title></dc:title>
      </cc:Work>
    </rdf:RDF>
  </metadata>
  <sodipodi:namedview
     pagecolor="#ffffff"
     bordercolor="#666666"
     borderopacity="1"
     objecttolerance="10"
     gridtolerance="10"
     guidetolerance="10"
     inkscape:pageopacity="0"
     inkscape:pageshadow="2"
     inkscape:window-width="1366"
     inkscape:window-height="706"
     id="namedview20"
     showgrid="false"
     inkscape:zoom="10.74"
     inkscape:cx="25"
     inkscape:cy="25"
     inkscape:window-x="-8"
     inkscape:window-y="-8"
     inkscape:window-maximized="1"
     inkscape:current-layer="svg18" />
  <defs
     id="defs11">
    <path
       id="a"
       d="M0 4.5h48.5v43.3h-48.5z" />
  </defs>
  <clipPath
     id="b">
    <use
       xlink:href="#a"
       overflow="visible"
       id="use13" />
  </clipPath>
  <path
     clip-path="url(#b)"
     d="m 48.27,44.61 c 0,0.97 -0.76,1.73 -1.76,1.73 -0.98,0 -1.77,-0.76 -1.77,-1.73 0,-0.95 0.78,-1.71 1.77,-1.71 1,0 1.76,0.76 1.76,1.71 m -3.08,0 c 0,0.76 0.56,1.37 1.34,1.37 0.75,0 1.31,-0.6 1.31,-1.36 0,-0.76 -0.55,-1.38 -1.32,-1.38 -0.77,0 -1.33,0.62 -1.33,1.37 m 1.06,0.9 h -0.4 V 43.8 c 0.16,-0.03 0.38,-0.05 0.66,-0.05 0.32,0 0.47,0.05 0.6,0.12 0.09,0.07 0.17,0.21 0.17,0.38 0,0.19 -0.14,0.33 -0.35,0.4 v 0.02 c 0.17,0.06 0.26,0.19 0.31,0.42 0.05,0.26 0.08,0.36 0.13,0.43 H 46.94 C 46.89,45.46 46.86,45.3 46.8,45.1 46.77,44.91 46.66,44.83 46.44,44.83 h -0.19 z m 0.01,-0.97 h 0.18 c 0.22,0 0.4,-0.07 0.4,-0.25 0,-0.16 -0.12,-0.26 -0.37,-0.26 l -0.22,0.02 v 0.49 z M 35.17,4.5 H 13.21 L 0.24,19.8 4.81,19.48 v 16.56 l -3.49,0.51 c 0,0 -1.68,0.31 -1.26,2.1 0.37,1.3 1.69,1.3 1.69,1.3 l 3.05,-0.5 v 4.4 L 26.65,47.8 43.82,43.88 43.8,19.83 48.5,19.4 Z m -4.44,18.21 4.76,-0.45 v 6.3 l -4.8,0.63 z M 6.41,42.65 v -3.46 l 9.46,-1.56 c 0,0 1.63,0.01 1.5,-1.82 -0.12,-1.64 -1.85,-1.35 -1.85,-1.35 L 6.41,35.82 V 19.03 L 16.04,7.66 26.66,19.54 v 26.78 z m 24.28,-4.93 0.02,-6.5 4.78,-0.64 0.03,6.3 z m 10.71,-1.9 -3.96,0.69 v -6.23 l 3.96,-0.57 z m -3.95,-7.51 v -6.25 l 3.96,-0.38 0.01,6.11 z m -16.97,-8.3 c -1.11,-1.3 -2.64,-2.12 -4.32,-2.12 l -0.27,0.01 c -1.67,0.09 -3.13,0.98 -4.14,2.3 -1.02,1.33 -1.61,3.09 -1.61,5.02 l 0.01,0.49 c 0.1,1.98 0.83,3.75 1.94,5.05 1.11,1.29 2.64,2.12 4.32,2.12 l 0.27,-0.01 c 1.67,-0.08 3.13,-0.98 4.14,-2.3 1.02,-1.33 1.62,-3.09 1.62,-5.02 l -0.01,-0.49 c -0.12,-1.97 -0.84,-3.75 -1.95,-5.05 m -0.64,9.81 c -0.84,1.09 -1.97,1.76 -3.23,1.82 h -0.2 c -1.27,0 -2.46,-0.62 -3.39,-1.69 -0.92,-1.07 -1.56,-2.59 -1.64,-4.31 l -0.01,-0.42 c 0,-1.67 0.52,-3.18 1.36,-4.27 0.84,-1.09 1.97,-1.76 3.23,-1.82 h 0.2 c 1.27,0 2.46,0.62 3.39,1.7 0.93,1.07 1.56,2.59 1.64,4.31 l 0.01,0.42 c 0,1.66 -0.53,3.17 -1.36,4.26 m -5.68,-4.31 c -0.11,-2.15 0.58,-4 1.64,-4.71 -1.8,0.13 -3.15,2.26 -3.02,4.8 0.14,2.56 1.72,4.56 3.54,4.47 v -0.03 c -1.14,-0.57 -2.05,-2.36 -2.16,-4.53"
     id="path16"
     inkscape:connector-curvature="0"
     transform="translate(0,0.09310987)"
     style="fill:#000000" />
</svg>
